<svg width="400" height="400" viewBox="0 0 400 400" fill="none" xmlns="http://www.w3.org/2000/svg">
<rect width="400" height="400" rx="39" fill="#A532DB"/>
<path d="M79.904 201.768C80.192 195.864 80.192 190.248 80.192 185.208V177.288H99.776V201.768H79.904ZM99.776 143.592V167.496H80.192V143.592H99.776ZM109.424 133.8H70.832V185.208C70.832 206.232 70.256 234.888 61.04 255.048C63.488 255.912 67.52 258.36 69.392 259.944C75.44 246.264 78.176 228.552 79.328 211.704H99.776V246.264C99.776 248.136 99.2 248.856 97.328 249C95.744 249 89.984 249 83.792 248.856C85.088 251.592 86.384 256.056 86.816 258.648C96.032 258.648 101.36 258.504 104.672 256.632C108.128 254.904 109.424 251.88 109.424 246.408V133.8ZM130.16 166.776H174.944V193.128H130.16V166.776ZM171.92 248.28C168.896 248.28 168.464 247.848 168.464 244.104V202.632H185.6V157.128H169.184C173.648 149.784 178.256 140.568 182.432 132.216L171.488 128.616C168.464 137.256 162.848 149.064 157.808 157.128H138.08L146.432 153.384C144.56 146.76 139.376 136.68 134.192 129.048L125.12 132.648C130.016 140.28 134.768 150.504 136.784 157.128H119.648V202.632H135.488C133.76 224.664 129.584 242.376 109.136 251.88C111.44 253.752 114.464 257.496 115.616 260.088C138.368 248.712 143.984 228.408 146 202.632H158.096V244.104C158.096 254.76 160.544 258.072 170.48 258.072H182.864C191.36 258.072 194.096 253.176 195.104 234.6C192.224 233.88 188.048 232.152 185.744 230.424C185.456 245.976 184.88 248.28 182 248.28H171.92ZM308.576 194.712C302.528 208.392 293.312 219.192 281.792 227.544C270.416 218.904 261.488 207.672 255.152 194.712H308.576ZM232.256 183.48V158.424H270.416V184.632H232.256V183.48ZM316.064 184.2L314.048 184.632H281.36V158.424H318.08C315.344 165.192 312.464 172.104 309.872 176.856L319.664 179.88C323.984 172.392 328.88 160.584 332.912 149.784L324.848 147.624L322.832 148.056H281.36V128.328H270.416V148.056H221.744V183.336C221.744 204.216 220.016 232.44 204.752 252.456C207.2 253.752 211.52 257.352 213.248 259.512C227.216 241.368 231.248 215.592 232.112 194.712H244.064C250.976 210.408 260.48 223.368 272.576 233.592C259.184 241.368 243.488 246.84 226.928 250.152C228.944 252.456 231.968 257.064 233.12 259.944C250.544 255.768 267.248 249.72 281.504 240.504C295.04 249.864 311.6 256.344 330.896 260.376C332.336 257.352 335.36 252.888 337.664 250.44C319.664 247.416 303.968 241.8 291.008 233.736C305.12 222.648 316.352 207.672 323.12 188.232L316.064 184.2Z" fill="white"/>
</svg>
