<svg width="400" height="400" viewBox="0 0 400 400" fill="none" xmlns="http://www.w3.org/2000/svg">
<rect width="400" height="400" rx="39" fill="#999999"/>
<path d="M51.8 251.7V207.43H157.82V251.7H51.8ZM157.82 150.43V193.56H51.8V150.43H157.82ZM99.68 136.37C104.05 128.01 108.61 117.94 112.22 108.63L94.74 105.4C92.46 114.33 88.47 126.68 84.29 136.37H37.93V279.63H51.8V265.76H157.82V278.68H172.45V136.37H99.68ZM255.48 127.44C249.02 120.79 235.72 112.81 225.08 107.87L216.91 117.94C227.74 123.26 240.85 132 247.12 138.46L255.48 127.44ZM247.5 176.46C240.66 170.57 226.98 163.16 215.77 158.6L207.79 168.86C219.19 173.99 232.87 181.97 239.52 188.05L247.5 176.46ZM224.7 277.16C233.44 259.49 243.32 236.5 250.73 216.74L239.33 208.76C231.35 230.04 219.95 254.55 211.97 268.99L224.7 277.16ZM280.56 225.48V207.43H299.56V225.48H280.56ZM331.67 207.43V225.48H311.72V207.43H331.67ZM350.67 260.63C346.87 253.98 339.08 244.1 331.67 237.07L322.17 241.82C324.45 244.29 326.73 246.95 329.01 249.8L311.72 250.75V235.17H343.64V197.74H311.72V184.25H299.56V197.74H269.16V235.17H299.56V251.7C284.36 252.65 270.49 253.41 259.66 253.98L261.18 265.95C281.13 264.24 309.06 262.15 336.61 259.68C338.13 262.15 339.65 264.43 340.6 266.52L350.67 260.63ZM275.24 123.83H295.38V144.92H275.24V123.83ZM306.59 123.83H327.3V144.92H306.59V123.83ZM338.32 123.83H359.79V144.92H338.32V123.83ZM375.94 170H288.16C290.63 165.44 292.91 160.88 295 156.13H372.9V112.62H262.7V156.13H280.18C272.39 173.23 260.23 189.19 246.93 200.02C250.16 202.3 255.48 206.67 257.76 209.33C265.74 202.11 273.53 192.8 280.56 182.35H362.83C361.31 240.68 359.6 260.82 355.99 265.76C354.66 268.04 352.95 268.23 350.1 268.23C346.68 268.23 339.46 268.23 331.1 267.66C333.19 270.7 334.33 275.64 334.71 278.87C343.26 279.44 351.43 279.44 355.99 279.06C361.31 278.49 364.73 277.16 367.58 272.79C372.71 266.14 374.23 243.72 375.94 176.46V170Z" fill="white"/>
</svg>
