<svg width="400" height="400" viewBox="0 0 400 400" fill="none" xmlns="http://www.w3.org/2000/svg">
<rect width="400" height="400" rx="39" fill="#999999"/>
<path d="M41.54 202.68C41.92 194.89 41.92 187.48 41.92 180.83V170.38H67.76V202.68H41.54ZM67.76 125.92V157.46H41.92V125.92H67.76ZM80.49 113H29.57V180.83C29.57 208.57 28.81 246.38 16.65 272.98C19.88 274.12 25.2 277.35 27.67 279.44C35.65 261.39 39.26 238.02 40.78 215.79H67.76V261.39C67.76 263.86 67 264.81 64.53 265C62.44 265 54.84 265 46.67 264.81C48.38 268.42 50.09 274.31 50.66 277.73C62.82 277.73 69.85 277.54 74.22 275.07C78.78 272.79 80.49 268.8 80.49 261.58V113ZM107.85 156.51H166.94V191.28H107.85V156.51ZM162.95 264.05C158.96 264.05 158.39 263.48 158.39 258.54V203.82H181V143.78H159.34C165.23 134.09 171.31 121.93 176.82 110.91L162.38 106.16C158.39 117.56 150.98 133.14 144.33 143.78H118.3L129.32 138.84C126.85 130.1 120.01 116.8 113.17 106.73L101.2 111.48C107.66 121.55 113.93 135.04 116.59 143.78H93.98V203.82H114.88C112.6 232.89 107.09 256.26 80.11 268.8C83.15 271.27 87.14 276.21 88.66 279.63C118.68 264.62 126.09 237.83 128.75 203.82H144.71V258.54C144.71 272.6 147.94 276.97 161.05 276.97H177.39C188.6 276.97 192.21 270.51 193.54 246C189.74 245.05 184.23 242.77 181.19 240.49C180.81 261.01 180.05 264.05 176.25 264.05H162.95ZM343.26 193.37C335.28 211.42 323.12 225.67 307.92 236.69C292.91 225.29 281.13 210.47 272.77 193.37H343.26ZM242.56 178.55V145.49H292.91V180.07H242.56V178.55ZM353.14 179.5L350.48 180.07H307.35V145.49H355.8C352.19 154.42 348.39 163.54 344.97 169.81L357.89 173.8C363.59 163.92 370.05 148.34 375.37 134.09L364.73 131.24L362.07 131.81H307.35V105.78H292.91V131.81H228.69V178.36C228.69 205.91 226.41 243.15 206.27 269.56C209.5 271.27 215.2 276.02 217.48 278.87C235.91 254.93 241.23 220.92 242.37 193.37H258.14C267.26 214.08 279.8 231.18 295.76 244.67C278.09 254.93 257.38 262.15 235.53 266.52C238.19 269.56 242.18 275.64 243.7 279.44C266.69 273.93 288.73 265.95 307.54 253.79C325.4 266.14 347.25 274.69 372.71 280.01C374.61 276.02 378.6 270.13 381.64 266.9C357.89 262.91 337.18 255.5 320.08 244.86C338.7 230.23 353.52 210.47 362.45 184.82L353.14 179.5Z" fill="white"/>
</svg>
