<?xml version="1.0" encoding="UTF-8" standalone="no"?>
<!-- Created with Inkscape (http://www.inkscape.org/) -->

<svg
   width="210mm"
   height="297mm"
   viewBox="0 0 210 297"
   version="1.1"
   id="svg5"
   sodipodi:docname="描画.svg"
   inkscape:version="1.1.1 (c3084ef, 2021-09-22)"
   xmlns:inkscape="http://www.inkscape.org/namespaces/inkscape"
   xmlns:sodipodi="http://sodipodi.sourceforge.net/DTD/sodipodi-0.dtd"
   xmlns="http://www.w3.org/2000/svg"
   xmlns:svg="http://www.w3.org/2000/svg">
  <sodipodi:namedview
     id="namedview7"
     pagecolor="#ffffff"
     bordercolor="#999999"
     borderopacity="1"
     inkscape:pageshadow="0"
     inkscape:pageopacity="0"
     inkscape:pagecheckerboard="0"
     inkscape:document-units="mm"
     showgrid="false"
     inkscape:zoom="0.55678311"
     inkscape:cx="364.59439"
     inkscape:cy="464.27414"
     inkscape:window-width="1440"
     inkscape:window-height="847"
     inkscape:window-x="0"
     inkscape:window-y="25"
     inkscape:window-maximized="0"
     inkscape:current-layer="layer1"
     inkscape:snap-bbox="true"
     inkscape:snap-global="false" />
  <defs
     id="defs2">
    <rect
       x="68.249197"
       y="210.13569"
       width="704.04435"
       height="436.43565"
       id="rect4041" />
  </defs>
  <g
     inkscape:label="Layer 1"
     inkscape:groupmode="layer"
     id="layer1">
    <rect
       style="fill:#0000ff;fill-rule:evenodd;stroke-width:0.264583"
       id="rect67"
       width="211.46399"
       height="211.46399"
       x="0"
       y="1.4255999"
       ry="26.136" />
    <path
       style="fill:#a0a0a0;stroke:none;stroke-width:1.79603"
       d="M 79.148265,801.63089 C 42.859781,794.70098 9.6574604,760.88012 2.8584319,723.91984 c -2.75739076,-14.98948 -2.75739076,-622.84 0,-637.829479 C 9.8075396,48.314242 42.926148,15.195634 80.702267,8.2465264 c 14.989483,-2.7573908 622.840003,-2.7573908 637.829483,0 37.77613,6.9491076 70.89473,40.0677156 77.84383,77.8438346 2.75739,14.989479 2.75739,622.839999 0,637.829479 -6.9491,37.77613 -40.0677,70.89473 -77.84383,77.84383 -13.65595,2.51209 -626.199825,2.38488 -639.383485,-0.13272 z"
       id="path106"
       transform="scale(0.26458333)" />
    <path
       style="fill:#a0a0a0;stroke:none;stroke-width:1.79603"
       d="M 78.12737,800.0948 C 53.41275,795.78073 25.471529,773.50269 12.384594,747.67685 1.5357084,726.26761 2.1310388,746.16344 2.1310388,405.0051 2.1310388,119.60554 2.3835145,92.428693 5.1325099,81.922207 14.234112,47.136466 45.196554,16.902732 79.025386,9.7684217 c 15.73945,-3.3193618 625.443794,-3.3193618 641.183244,0 33.83896,7.1364453 64.84909,37.4254143 73.87176,72.1537853 2.72092,10.472866 2.98036,38.596573 2.98036,323.082893 0,345.70902 0.81622,321.75078 -11.7719,345.53329 -7.43242,14.04195 -26.07067,32.69246 -40.08207,40.10846 -22.75448,12.04354 0.35781,11.30305 -345.51811,11.06996 -172.41353,-0.11618 -317.116122,-0.84609 -321.5613,-1.62201 z"
       id="path145"
       transform="scale(0.26458333)" />
    <path
       style="fill:#b3b3b3;stroke:none;stroke-width:1.79603"
       d="M 77.782424,800.08456 C 46.056918,794.73487 11.555379,759.71836 4.390026,725.59672 2.6203721,717.16958 2.1271198,647.08991 2.1272377,404.10709 2.1274051,59.396071 1.305487,83.495676 13.881037,59.471813 25.826795,36.651085 54.198429,15.004287 79.025386,9.7684217 c 15.73945,-3.3193618 625.443794,-3.3193618 641.183244,0 34.47623,7.2708433 67.4436,40.2488143 74.62109,74.6450583 3.28431,15.7392 3.29241,625.50543 0.009,641.18324 -7.09226,33.85958 -40.1861,67.38976 -73.371,74.33843 -11.19118,2.34335 -629.822447,2.48695 -643.684827,0.14943 z"
       id="path184"
       transform="scale(0.26458333)" />
    <path
       style="fill:#b3b3b3;stroke-width:1.79603"
       d="M 233.48409,800.13203 C 56.374505,799.13703 70.093367,800.15851 49.153133,786.40719 30.462102,774.13293 15.436239,755.32861 7.6812045,734.5066 L 3.6938543,723.80069 3.0744623,439.1297 C 2.7192328,275.8671 3.1846072,138.12272 4.165644,116.15508 L 5.8762176,77.85144 12.519813,64.409039 C 23.474019,42.244712 46.422312,21.814906 70.115514,13.134245 L 80.821417,9.2118414 350.22614,8.5458047 c 148.1726,-0.36632 293.24704,0.020609 322.38766,0.8598418 l 52.98292,1.5258785 11.67421,5.658556 c 24.79782,12.019654 46.99505,36.55788 54.85416,60.639273 3.43782,10.533966 3.51686,17.901589 3.51686,327.775746 v 316.99956 l -4.14123,11.98417 c -8.48569,24.55647 -29.39615,47.53005 -54.22979,59.58038 l -11.67421,5.66481 -60.16705,0.44511 c -154.34154,1.14182 -284.94228,1.27877 -431.94558,0.4529 z"
       id="path260"
       transform="scale(0.26458333)" />
    <path
       style="fill:#b3b3b3;stroke-width:1.79603"
       d="M 201.15553,800.13203 C 57.597685,799.12106 68.033134,800.15795 46.455935,784.76079 32.197757,774.58636 19.107746,759.06164 11.369081,743.14789 5.8971674,731.89546 5.3720658,729.23672 4.3555621,707.63641 2.801909,674.62187 2.9050569,136.66955 4.4711906,104.59248 5.7320243,78.768471 5.941166,77.720027 12.464654,64.520646 20.301819,48.663222 34.267866,33.526495 51.098628,22.648249 73.496384,8.1718795 47.932602,9.3509421 355.61424,8.6032626 506.75029,8.2359955 651.84269,8.5746583 678.04182,9.3558467 l 47.63476,1.4203423 11.63427,5.744381 c 17.18478,8.484916 31.74294,21.13108 42.45309,36.877496 16.88652,24.827143 15.38671,-3.659025 16.24282,308.502284 0.41586,151.62996 0.0659,296.7044 -0.77782,322.38765 -1.48313,45.15079 -1.69192,47.03932 -6.30643,57.042 -10.23078,22.17682 -30.77789,42.72746 -52.98061,52.9897 -8.56687,3.95965 -13.43252,4.88253 -28.30549,5.36875 -32.41853,1.0598 -376.22136,1.3609 -506.48088,0.44358 z"
       id="path299"
       transform="scale(0.26458333)" />
    <path
       style="fill:#b3b3b3;stroke-width:1.79603"
       d="M 201.15553,800.16107 C 56.454292,799.08548 67.138931,800.22551 44.917821,783.4906 28.955609,771.46929 16.888987,756.39486 9.4659332,739.2017 L 3.592063,725.59672 3.0417284,436.01105 C 2.72201,267.77542 3.2123911,132.12205 4.2119573,112.29241 5.8371027,80.052382 6.2260809,77.536046 11.225955,66.918215 21.443558,45.219919 40.982366,25.997337 63.292112,15.694725 72.863319,11.274755 76.123134,10.822129 106.86387,9.6447788 148.51622,8.0495216 643.1384,8.0138917 690.61921,9.6027281 c 34.76948,1.1634819 35.1666,1.2223129 46.69682,6.9178419 17.18312,8.487872 31.74017,21.134604 42.44791,36.877496 17.02336,25.028331 15.48292,-6.312105 16.0903,327.360614 0.29488,162.00204 -0.0754,307.1975 -0.82296,322.65655 -1.34057,27.7245 -1.45193,28.29524 -8.17302,41.89445 -12.70484,25.70649 -43.92531,51.03653 -66.23108,53.73516 -11.60625,1.40416 -375.53367,2.18615 -519.47165,1.11623 z"
       id="path338"
       transform="scale(0.26458333)" />
    <path
       style="fill:#d4aa00;stroke-width:1.79603"
       d="M 177.80712,800.26075 C 58.08358,799.08071 64.353605,799.95444 41.737135,781.29933 20.298728,763.61593 6.9363388,741.49112 4.3990334,719.47666 2.5601984,703.52235 2.4783315,144.17357 4.3094562,107.44914 5.712373,79.312706 5.9558917,77.986432 12.059084,65.242398 22.294818,43.869235 40.735853,26.076594 63.462139,15.646696 72.880745,11.324163 76.37484,10.862413 110.45594,9.4363996 c 20.25025,-0.8473068 165.7288,-1.2748715 323.28567,-0.950144 258.26205,0.5322827 287.222,0.8756248 294.13514,3.4871944 28.15613,10.636514 55.85856,38.375461 64.27312,64.357889 3.00911,9.29146 3.22431,27.799611 3.62309,311.611461 0.23317,165.95331 -0.14943,311.15968 -0.85039,322.68079 -1.1755,19.32294 -1.79971,22.01056 -8.04886,34.65482 -11.80591,23.88765 -38.57486,46.94413 -61.27699,52.77877 -8.5948,2.20893 -391.12456,3.74771 -547.7896,2.20357 z"
       id="path377"
       transform="scale(0.26458333)"
       inkscape:export-filename="/Users/takahashishuuhei/Pictures/素材/hakudaku.png"
       inkscape:export-xdpi="96"
       inkscape:export-ydpi="96" />
    <text
       xml:space="preserve"
       transform="scale(0.26458333)"
       id="text4039"
       style="fill:black;fill-opacity:1;line-height:1.25;stroke:none;font-family:sans-serif;font-style:normal;font-weight:normal;font-size:40px;white-space:pre;shape-inside:url(#rect4041)" />
    <text
       xml:space="preserve"
       style="font-style:normal;font-variant:normal;font-weight:normal;font-stretch:normal;font-size:104.187px;line-height:1.25;font-family:'M+ 1p';-inkscape-font-specification:'M+ 1p';fill:#f4eed7;fill-opacity:1;stroke:none;stroke-width:2.60468"
       x="0.6472941"
       y="143.5504"
       id="text9730"><tspan
         sodipodi:role="line"
         id="tspan9728"
         style="font-style:normal;font-variant:normal;font-weight:normal;font-stretch:normal;font-family:'M+ 1p';-inkscape-font-specification:'M+ 1p';fill:#f4eed7;stroke-width:2.60468"
         x="0.6472941"
         y="143.5504">白濁</tspan></text>
    <path
       style="fill:#000000;fill-opacity:0;stroke-width:1.79603"
       d="m 168.31199,556.91133 -9.24169,-11.53266 6.67436,-3.9126 c 34.4006,-20.16613 54.17983,-53.51066 58.83925,-99.19331 l 1.23651,-12.12322 h -19.06757 -19.06756 v -62.8611 -62.8611 h 74.53531 74.53531 v 62.8611 62.8611 h -18.85834 -18.85833 l 0.0275,45.3498 c 0.0153,25.2424 0.778,46.53686 1.72016,48.02708 1.19904,1.89651 5.77404,2.86184 15.68778,3.31011 12.18722,0.55109 14.63108,0.13201 18.91829,-3.24412 5.53203,-4.35644 9.50656,-16.07127 11.37784,-33.53593 l 1.18251,-11.03629 11.01459,3.63858 c 6.05802,2.00121 11.75284,4.3113 12.65516,5.13354 2.66734,2.43061 -3.90699,31.97019 -9.83081,44.17146 -8.64832,17.81297 -12.50551,19.4179 -46.66772,19.4179 -44.18012,0 -43.02577,1.87771 -43.02577,-69.98754 v -51.24459 h -8.87011 -8.87011 l -1.0497,8.53115 c -6.0688,49.3224 -16.94651,76.43197 -41.04094,102.28279 -10.14139,10.88067 -30.33994,27.48049 -33.43807,27.48049 -0.70189,0 -5.43492,-5.18969 -10.51785,-11.53264 z M 308.0194,367.28844 v -35.92063 h -45.7988 -45.7988 v 35.92063 35.92063 h 45.7988 45.7988 z"
       id="path12603"
       transform="scale(0.26458333)" />
    <path
       style="fill:#000000;fill-opacity:0;stroke-width:1.79603"
       d="m 168.31199,556.91133 -9.24169,-11.53266 6.67436,-3.9126 c 34.4006,-20.16613 54.17983,-53.51066 58.83925,-99.19331 l 1.23651,-12.12322 h -19.06757 -19.06756 v -62.8611 -62.8611 h 74.53531 74.53531 v 62.8611 62.8611 h -18.85834 -18.85833 l 0.0275,45.3498 c 0.0153,25.2424 0.778,46.53686 1.72016,48.02708 1.19904,1.89651 5.77404,2.86184 15.68778,3.31011 12.18722,0.55109 14.63108,0.13201 18.91829,-3.24412 5.53203,-4.35644 9.50656,-16.07127 11.37784,-33.53593 l 1.18251,-11.03629 11.01459,3.63858 c 6.05802,2.00121 11.75284,4.3113 12.65516,5.13354 2.66734,2.43061 -3.90699,31.97019 -9.83081,44.17146 -8.64832,17.81297 -12.50551,19.4179 -46.66772,19.4179 -44.18012,0 -43.02577,1.87771 -43.02577,-69.98754 v -51.24459 h -8.87011 -8.87011 l -1.0497,8.53115 c -6.0688,49.3224 -16.94651,76.43197 -41.04094,102.28279 -10.14139,10.88067 -30.33994,27.48049 -33.43807,27.48049 -0.70189,0 -5.43492,-5.18969 -10.51785,-11.53264 z M 308.0194,367.28844 v -35.92063 h -45.7988 -45.7988 v 35.92063 35.92063 h 45.7988 45.7988 z"
       id="path12642"
       transform="scale(0.26458333)" />
    <path
       style="fill:#f4eed7;fill-opacity:0;stroke-width:1.79603"
       d="m 168.31199,556.91133 -9.24169,-11.53266 6.67436,-3.9126 c 34.4006,-20.16613 54.17983,-53.51066 58.83925,-99.19331 l 1.23651,-12.12322 h -19.06757 -19.06756 v -62.8611 -62.8611 h 74.53531 74.53531 v 62.8611 62.8611 h -18.85834 -18.85833 l 0.0275,45.3498 c 0.0153,25.2424 0.778,46.53686 1.72016,48.02708 1.19904,1.89651 5.77404,2.86184 15.68778,3.31011 12.18722,0.55109 14.63108,0.13201 18.91829,-3.24412 5.53203,-4.35644 9.50656,-16.07127 11.37784,-33.53593 l 1.18251,-11.03629 11.01459,3.63858 c 6.05802,2.00121 11.75284,4.3113 12.65516,5.13354 2.66734,2.43061 -3.90699,31.97019 -9.83081,44.17146 -8.64832,17.81297 -12.50551,19.4179 -46.66772,19.4179 -44.18012,0 -43.02577,1.87771 -43.02577,-69.98754 v -51.24459 h -8.87011 -8.87011 l -1.0497,8.53115 c -6.0688,49.3224 -16.94651,76.43197 -41.04094,102.28279 -10.14139,10.88067 -30.33994,27.48049 -33.43807,27.48049 -0.70189,0 -5.43492,-5.18969 -10.51785,-11.53264 z M 308.0194,367.28844 v -35.92063 h -45.7988 -45.7988 v 35.92063 35.92063 h 45.7988 45.7988 z"
       id="path12681"
       transform="scale(0.26458333)" />
    <path
       style="fill:#f4eed7;fill-opacity:0;stroke-width:1.79603"
       d="m 168.31199,556.91133 -9.24169,-11.53266 6.67436,-3.9126 c 34.4006,-20.16613 54.17983,-53.51066 58.83925,-99.19331 l 1.23651,-12.12322 h -19.06757 -19.06756 v -62.8611 -62.8611 h 74.53531 74.53531 v 62.8611 62.8611 h -18.85834 -18.85833 l 0.0275,45.3498 c 0.0153,25.2424 0.778,46.53686 1.72016,48.02708 1.19904,1.89651 5.77404,2.86184 15.68778,3.31011 12.18722,0.55109 14.63108,0.13201 18.91829,-3.24412 5.53203,-4.35644 9.50656,-16.07127 11.37784,-33.53593 l 1.18251,-11.03629 11.01459,3.63858 c 6.05802,2.00121 11.75284,4.3113 12.65516,5.13354 2.66734,2.43061 -3.90699,31.97019 -9.83081,44.17146 -8.64832,17.81297 -12.50551,19.4179 -46.66772,19.4179 -44.18012,0 -43.02577,1.87771 -43.02577,-69.98754 v -51.24459 h -8.87011 -8.87011 l -1.0497,8.53115 c -6.0688,49.3224 -16.94651,76.43197 -41.04094,102.28279 -10.14139,10.88067 -30.33994,27.48049 -33.43807,27.48049 -0.70189,0 -5.43492,-5.18969 -10.51785,-11.53264 z M 308.0194,367.28844 v -35.92063 h -45.7988 -45.7988 v 35.92063 35.92063 h 45.7988 45.7988 z"
       id="path13966"
       transform="scale(0.26458333)" />
    <path
       style="fill:#f4eed7;fill-opacity:0;stroke-width:1.79603"
       d="m 168.31199,556.91133 -9.24169,-11.53266 6.67436,-3.9126 c 34.4006,-20.16613 54.17983,-53.51066 58.83925,-99.19331 l 1.23651,-12.12322 h -19.06757 -19.06756 v -62.8611 -62.8611 h 74.53531 74.53531 v 62.8611 62.8611 h -18.85834 -18.85833 l 0.0275,45.3498 c 0.0153,25.2424 0.778,46.53686 1.72016,48.02708 1.19904,1.89651 5.77404,2.86184 15.68778,3.31011 12.18722,0.55109 14.63108,0.13201 18.91829,-3.24412 5.53203,-4.35644 9.50656,-16.07127 11.37784,-33.53593 l 1.18251,-11.03629 11.01459,3.63858 c 6.05802,2.00121 11.75284,4.3113 12.65516,5.13354 2.66734,2.43061 -3.90699,31.97019 -9.83081,44.17146 -8.64832,17.81297 -12.50551,19.4179 -46.66772,19.4179 -44.18012,0 -43.02577,1.87771 -43.02577,-69.98754 v -51.24459 h -8.87011 -8.87011 l -1.0497,8.53115 c -6.0688,49.3224 -16.94651,76.43197 -41.04094,102.28279 -10.14139,10.88067 -30.33994,27.48049 -33.43807,27.48049 -0.70189,0 -5.43492,-5.18969 -10.51785,-11.53264 z M 308.0194,367.28844 v -35.92063 h -45.7988 -45.7988 v 35.92063 35.92063 h 45.7988 45.7988 z"
       id="path14005"
       transform="scale(0.26458333)" />
    <path
       style="fill:#f4eed7;fill-opacity:0;stroke-width:1.79603"
       d="m 168.31199,556.91133 -9.24169,-11.53266 6.67436,-3.9126 c 34.4006,-20.16613 54.17983,-53.51066 58.83925,-99.19331 l 1.23651,-12.12322 h -19.06757 -19.06756 v -62.8611 -62.8611 h 74.53531 74.53531 v 62.8611 62.8611 h -18.85834 -18.85833 l 0.0275,45.3498 c 0.0153,25.2424 0.778,46.53686 1.72016,48.02708 1.19904,1.89651 5.77404,2.86184 15.68778,3.31011 12.18722,0.55109 14.63108,0.13201 18.91829,-3.24412 5.53203,-4.35644 9.50656,-16.07127 11.37784,-33.53593 l 1.18251,-11.03629 11.01459,3.63858 c 6.05802,2.00121 11.75284,4.3113 12.65516,5.13354 2.66734,2.43061 -3.90699,31.97019 -9.83081,44.17146 -8.64832,17.81297 -12.50551,19.4179 -46.66772,19.4179 -44.18012,0 -43.02577,1.87771 -43.02577,-69.98754 v -51.24459 h -8.87011 -8.87011 l -1.0497,8.53115 c -6.0688,49.3224 -16.94651,76.43197 -41.04094,102.28279 -10.14139,10.88067 -30.33994,27.48049 -33.43807,27.48049 -0.70189,0 -5.43492,-5.18969 -10.51785,-11.53264 z M 308.0194,367.28844 v -35.92063 h -45.7988 -45.7988 v 35.92063 35.92063 h 45.7988 45.7988 z"
       id="path14044"
       transform="scale(0.26458333)" />
    <path
       style="fill:#f4eed7;fill-opacity:0;stroke-width:1.79603"
       d="m 168.31199,556.91133 -9.24169,-11.53266 6.67436,-3.9126 c 34.4006,-20.16613 54.17983,-53.51066 58.83925,-99.19331 l 1.23651,-12.12322 h -19.06757 -19.06756 v -62.8611 -62.8611 h 74.53531 74.53531 v 62.8611 62.8611 h -18.85834 -18.85833 l 0.0275,45.3498 c 0.0153,25.2424 0.778,46.53686 1.72016,48.02708 1.19904,1.89651 5.77404,2.86184 15.68778,3.31011 12.18722,0.55109 14.63108,0.13201 18.91829,-3.24412 5.53203,-4.35644 9.50656,-16.07127 11.37784,-33.53593 l 1.18251,-11.03629 11.01459,3.63858 c 6.05802,2.00121 11.75284,4.3113 12.65516,5.13354 2.66734,2.43061 -3.90699,31.97019 -9.83081,44.17146 -8.64832,17.81297 -12.50551,19.4179 -46.66772,19.4179 -44.18012,0 -43.02577,1.87771 -43.02577,-69.98754 v -51.24459 h -8.87011 -8.87011 l -1.0497,8.53115 c -6.0688,49.3224 -16.94651,76.43197 -41.04094,102.28279 -10.14139,10.88067 -30.33994,27.48049 -33.43807,27.48049 -0.70189,0 -5.43492,-5.18969 -10.51785,-11.53264 z M 308.0194,367.28844 v -35.92063 h -45.7988 -45.7988 v 35.92063 35.92063 h 45.7988 45.7988 z"
       id="path14083"
       transform="scale(0.26458333)" />
    <path
       style="fill:#f4eed7;fill-opacity:0;stroke-width:1.79603"
       d="m 168.31199,556.91133 -9.24169,-11.53266 6.67436,-3.9126 c 34.4006,-20.16613 54.17983,-53.51066 58.83925,-99.19331 l 1.23651,-12.12322 h -19.06757 -19.06756 v -62.8611 -62.8611 h 74.53531 74.53531 v 62.8611 62.8611 h -18.85834 -18.85833 l 0.0275,45.3498 c 0.0153,25.2424 0.778,46.53686 1.72016,48.02708 1.19904,1.89651 5.77404,2.86184 15.68778,3.31011 12.18722,0.55109 14.63108,0.13201 18.91829,-3.24412 5.53203,-4.35644 9.50656,-16.07127 11.37784,-33.53593 l 1.18251,-11.03629 11.01459,3.63858 c 6.05802,2.00121 11.75284,4.3113 12.65516,5.13354 2.66734,2.43061 -3.90699,31.97019 -9.83081,44.17146 -8.64832,17.81297 -12.50551,19.4179 -46.66772,19.4179 -44.18012,0 -43.02577,1.87771 -43.02577,-69.98754 v -51.24459 h -8.87011 -8.87011 l -1.0497,8.53115 c -6.0688,49.3224 -16.94651,76.43197 -41.04094,102.28279 -10.14139,10.88067 -30.33994,27.48049 -33.43807,27.48049 -0.70189,0 -5.43492,-5.18969 -10.51785,-11.53264 z M 308.0194,367.28844 v -35.92063 h -45.7988 -45.7988 v 35.92063 35.92063 h 45.7988 45.7988 z"
       id="path14122"
       transform="scale(0.26458333)" />
    <path
       style="fill:#f4eed7;fill-opacity:0;stroke-width:1.79603"
       d="m 26.539519,564.69082 -11.031301,-9.0342 4.282773,-11.37829 C 35.97263,501.28767 40.386099,452.71501 40.401472,317.44857 l 0.0092,-81.27043 H 92.495585 144.5805 v 156.4469 c 0,148.24819 0.16471,156.38519 3.14305,155.26954 19.15159,-7.17392 45.4195,-31.69977 54.93513,-51.29187 9.35141,-19.254 15.43653,-46.53518 15.52353,-69.59622 l 0.0356,-9.42917 H 193.9714 169.72498 v -65.55515 -65.55515 h 20.65436 c 12.76606,0 20.65436,-0.69573 20.65436,-1.82167 0,-1.00193 -5.31121,-12.42076 -11.80267,-25.37518 -6.49147,-12.95442 -11.13871,-24.15195 -10.32719,-24.88338 0.81153,-0.73144 6.56676,-3.01274 12.78942,-5.06956 l 11.31392,-3.73966 11.23048,22.81159 c 6.17677,12.54638 12.596,26.24651 14.26498,30.44473 l 3.03452,7.63313 h 22.98202 22.98203 l 7.93198,-12.06453 c 4.36258,-6.6355 12.23448,-20.53229 17.4931,-30.88176 5.25861,-10.34947 9.77874,-19.03483 10.04471,-19.30081 1.16875,-1.16875 24.56109,6.91809 24.56109,8.49088 0,2.41365 -13.44038,29.11209 -20.8509,41.41894 -3.34925,5.56222 -6.08957,10.61355 -6.08957,11.2252 0,0.61165 10.10268,1.11208 22.4504,1.11208 h 22.45039 v 65.55515 65.55515 h -26.94047 -26.94048 v 59.82378 c 0,45.4655 0.54639,60.57102 2.27653,62.93711 1.9196,2.62521 4.77663,3.03102 18.22214,2.58832 22.32718,-0.73514 22.61376,-1.18488 24.55482,-38.53619 0.81294,-15.6431 1.51524,-31.06869 1.5607,-34.2791 0.0762,-5.3753 0.54443,-5.83554 5.91974,-5.81732 3.2104,0.0108 8.98175,0.5392 12.82522,1.17406 l 6.98815,1.15431 -1.22987,28.90945 c -1.4686,34.52127 -3.57892,49.37549 -8.34077,58.7095 -5.67347,11.12092 -11.44282,13.13765 -39.42825,13.78256 -30.38513,0.70022 -40.34899,-1.4944 -46.18493,-10.17261 -4.09242,-6.08555 -4.10395,-6.29134 -4.10395,-73.18828 v -67.08559 h -18.58352 -18.58354 l -2.02915,22.05579 c -5.85185,63.60631 -28.37746,101.72485 -75.99279,128.59727 l -10.04905,5.67133 -7.77697,-10.30052 -7.77697,-10.30053 -1.4942,5.76628 c -2.68859,10.37562 -7.11648,11.71086 -37.72933,11.37738 -14.970436,-0.16308 -27.633363,-0.71091 -28.139833,-1.21737 -0.506471,-0.50648 -1.257113,-6.20168 -1.668093,-12.65602 l -0.747239,-11.73518 20.931364,0.57891 c 17.095741,0.47282 21.244541,0.0853 22.640391,-2.11513 0.96072,-1.51445 1.72107,-22.15746 1.73653,-47.14583 l 0.0275,-44.45178 H 91.920251 64.404405 l -2.222506,22.00139 c -1.222377,12.10076 -3.841852,30.04997 -5.821051,39.88713 -3.397959,16.88876 -14.274014,53.17239 -17.368505,57.94306 -1.008159,1.55425 -4.629303,-0.43552 -12.452824,-6.84268 z M 119.43609,389.73883 V 352.92019 H 92.495622 65.55515 v 36.81864 36.81865 h 26.940472 26.940468 z m 217.31982,-37.71666 v -42.20674 h -70.04523 -70.04523 v 42.20674 42.20674 h 70.04523 70.04523 z m -217.31982,-57.473 V 259.52655 H 92.495622 65.55515 v 35.02262 35.02261 h 26.940472 26.940468 z"
       id="path23820"
       transform="scale(0.26458333)" />
    <path
       style="fill:#f4eed7;fill-opacity:0;stroke-width:1.79603"
       d="m 26.539519,564.69082 -11.031301,-9.0342 4.282773,-11.37829 C 35.97263,501.28767 40.386099,452.71501 40.401472,317.44857 l 0.0092,-81.27043 H 92.495585 144.5805 v 156.4469 c 0,148.24819 0.16471,156.38519 3.14305,155.26954 19.15159,-7.17392 45.4195,-31.69977 54.93513,-51.29187 9.35141,-19.254 15.43653,-46.53518 15.52353,-69.59622 l 0.0356,-9.42917 H 193.9714 169.72498 v -65.55515 -65.55515 h 20.65436 c 12.76606,0 20.65436,-0.69573 20.65436,-1.82167 0,-1.00193 -5.31121,-12.42076 -11.80267,-25.37518 -6.49147,-12.95442 -11.13871,-24.15195 -10.32719,-24.88338 0.81153,-0.73144 6.56676,-3.01274 12.78942,-5.06956 l 11.31392,-3.73966 11.23048,22.81159 c 6.17677,12.54638 12.596,26.24651 14.26498,30.44473 l 3.03452,7.63313 h 22.98202 22.98203 l 7.93198,-12.06453 c 4.36258,-6.6355 12.23448,-20.53229 17.4931,-30.88176 5.25861,-10.34947 9.77874,-19.03483 10.04471,-19.30081 1.16875,-1.16875 24.56109,6.91809 24.56109,8.49088 0,2.41365 -13.44038,29.11209 -20.8509,41.41894 -3.34925,5.56222 -6.08957,10.61355 -6.08957,11.2252 0,0.61165 10.10268,1.11208 22.4504,1.11208 h 22.45039 v 65.55515 65.55515 h -26.94047 -26.94048 v 59.82378 c 0,45.4655 0.54639,60.57102 2.27653,62.93711 1.9196,2.62521 4.77663,3.03102 18.22214,2.58832 22.32718,-0.73514 22.61376,-1.18488 24.55482,-38.53619 0.81294,-15.6431 1.51524,-31.06869 1.5607,-34.2791 0.0762,-5.3753 0.54443,-5.83554 5.91974,-5.81732 3.2104,0.0108 8.98175,0.5392 12.82522,1.17406 l 6.98815,1.15431 -1.22987,28.90945 c -1.4686,34.52127 -3.57892,49.37549 -8.34077,58.7095 -5.67347,11.12092 -11.44282,13.13765 -39.42825,13.78256 -30.38513,0.70022 -40.34899,-1.4944 -46.18493,-10.17261 -4.09242,-6.08555 -4.10395,-6.29134 -4.10395,-73.18828 v -67.08559 h -18.58352 -18.58354 l -2.02915,22.05579 c -5.85185,63.60631 -28.37746,101.72485 -75.99279,128.59727 l -10.04905,5.67133 -7.77697,-10.30052 -7.77697,-10.30053 -1.4942,5.76628 c -2.68859,10.37562 -7.11648,11.71086 -37.72933,11.37738 -14.970436,-0.16308 -27.633363,-0.71091 -28.139833,-1.21737 -0.506471,-0.50648 -1.257113,-6.20168 -1.668093,-12.65602 l -0.747239,-11.73518 20.931364,0.57891 c 17.095741,0.47282 21.244541,0.0853 22.640391,-2.11513 0.96072,-1.51445 1.72107,-22.15746 1.73653,-47.14583 l 0.0275,-44.45178 H 91.920251 64.404405 l -2.222506,22.00139 c -1.222377,12.10076 -3.841852,30.04997 -5.821051,39.88713 -3.397959,16.88876 -14.274014,53.17239 -17.368505,57.94306 -1.008159,1.55425 -4.629303,-0.43552 -12.452824,-6.84268 z M 119.43609,389.73883 V 352.92019 H 92.495622 65.55515 v 36.81864 36.81865 h 26.940472 26.940468 z m 217.31982,-37.71666 v -42.20674 h -70.04523 -70.04523 v 42.20674 42.20674 h 70.04523 70.04523 z m -217.31982,-57.473 V 259.52655 H 92.495622 65.55515 v 35.02262 35.02261 h 26.940472 26.940468 z"
       id="path23859"
       transform="scale(0.26458333)" />
    <path
       style="fill:#f4eed7;fill-opacity:0;stroke-width:1.79603"
       d="m 26.539519,564.69082 -11.031301,-9.0342 4.282773,-11.37829 C 35.97263,501.28767 40.386099,452.71501 40.401472,317.44857 l 0.0092,-81.27043 H 92.495585 144.5805 v 156.4469 c 0,148.24819 0.16471,156.38519 3.14305,155.26954 19.15159,-7.17392 45.4195,-31.69977 54.93513,-51.29187 9.35141,-19.254 15.43653,-46.53518 15.52353,-69.59622 l 0.0356,-9.42917 H 193.9714 169.72498 v -65.55515 -65.55515 h 20.65436 c 12.76606,0 20.65436,-0.69573 20.65436,-1.82167 0,-1.00193 -5.31121,-12.42076 -11.80267,-25.37518 -6.49147,-12.95442 -11.13871,-24.15195 -10.32719,-24.88338 0.81153,-0.73144 6.56676,-3.01274 12.78942,-5.06956 l 11.31392,-3.73966 11.23048,22.81159 c 6.17677,12.54638 12.596,26.24651 14.26498,30.44473 l 3.03452,7.63313 h 22.98202 22.98203 l 7.93198,-12.06453 c 4.36258,-6.6355 12.23448,-20.53229 17.4931,-30.88176 5.25861,-10.34947 9.77874,-19.03483 10.04471,-19.30081 1.16875,-1.16875 24.56109,6.91809 24.56109,8.49088 0,2.41365 -13.44038,29.11209 -20.8509,41.41894 -3.34925,5.56222 -6.08957,10.61355 -6.08957,11.2252 0,0.61165 10.10268,1.11208 22.4504,1.11208 h 22.45039 v 65.55515 65.55515 h -26.94047 -26.94048 v 59.82378 c 0,45.4655 0.54639,60.57102 2.27653,62.93711 1.9196,2.62521 4.77663,3.03102 18.22214,2.58832 22.32718,-0.73514 22.61376,-1.18488 24.55482,-38.53619 0.81294,-15.6431 1.51524,-31.06869 1.5607,-34.2791 0.0762,-5.3753 0.54443,-5.83554 5.91974,-5.81732 3.2104,0.0108 8.98175,0.5392 12.82522,1.17406 l 6.98815,1.15431 -1.22987,28.90945 c -1.4686,34.52127 -3.57892,49.37549 -8.34077,58.7095 -5.67347,11.12092 -11.44282,13.13765 -39.42825,13.78256 -30.38513,0.70022 -40.34899,-1.4944 -46.18493,-10.17261 -4.09242,-6.08555 -4.10395,-6.29134 -4.10395,-73.18828 v -67.08559 h -18.58352 -18.58354 l -2.02915,22.05579 c -5.85185,63.60631 -28.37746,101.72485 -75.99279,128.59727 l -10.04905,5.67133 -7.77697,-10.30052 -7.77697,-10.30053 -1.4942,5.76628 c -2.68859,10.37562 -7.11648,11.71086 -37.72933,11.37738 -14.970436,-0.16308 -27.633363,-0.71091 -28.139833,-1.21737 -0.506471,-0.50648 -1.257113,-6.20168 -1.668093,-12.65602 l -0.747239,-11.73518 20.931364,0.57891 c 17.095741,0.47282 21.244541,0.0853 22.640391,-2.11513 0.96072,-1.51445 1.72107,-22.15746 1.73653,-47.14583 l 0.0275,-44.45178 H 91.920251 64.404405 l -2.222506,22.00139 c -1.222377,12.10076 -3.841852,30.04997 -5.821051,39.88713 -3.397959,16.88876 -14.274014,53.17239 -17.368505,57.94306 -1.008159,1.55425 -4.629303,-0.43552 -12.452824,-6.84268 z M 119.43609,389.73883 V 352.92019 H 92.495622 65.55515 v 36.81864 36.81865 h 26.940472 26.940468 z m 217.31982,-37.71666 v -42.20674 h -70.04523 -70.04523 v 42.20674 42.20674 h 70.04523 70.04523 z m -217.31982,-57.473 V 259.52655 H 92.495622 65.55515 v 35.02262 35.02261 h 26.940472 26.940468 z"
       id="path23898"
       transform="scale(0.26458333)" />
    <path
       style="fill:#f4eed7;fill-opacity:0;stroke-width:1.79603"
       d="m 26.539519,564.69082 -11.031301,-9.0342 4.282773,-11.37829 C 35.97263,501.28767 40.386099,452.71501 40.401472,317.44857 l 0.0092,-81.27043 H 92.495585 144.5805 v 156.4469 c 0,148.24819 0.16471,156.38519 3.14305,155.26954 19.15159,-7.17392 45.4195,-31.69977 54.93513,-51.29187 9.35141,-19.254 15.43653,-46.53518 15.52353,-69.59622 l 0.0356,-9.42917 H 193.9714 169.72498 v -65.55515 -65.55515 h 20.65436 c 12.76606,0 20.65436,-0.69573 20.65436,-1.82167 0,-1.00193 -5.31121,-12.42076 -11.80267,-25.37518 -6.49147,-12.95442 -11.13871,-24.15195 -10.32719,-24.88338 0.81153,-0.73144 6.56676,-3.01274 12.78942,-5.06956 l 11.31392,-3.73966 11.23048,22.81159 c 6.17677,12.54638 12.596,26.24651 14.26498,30.44473 l 3.03452,7.63313 h 22.98202 22.98203 l 7.93198,-12.06453 c 4.36258,-6.6355 12.23448,-20.53229 17.4931,-30.88176 5.25861,-10.34947 9.77874,-19.03483 10.04471,-19.30081 1.16875,-1.16875 24.56109,6.91809 24.56109,8.49088 0,2.41365 -13.44038,29.11209 -20.8509,41.41894 -3.34925,5.56222 -6.08957,10.61355 -6.08957,11.2252 0,0.61165 10.10268,1.11208 22.4504,1.11208 h 22.45039 v 65.55515 65.55515 h -26.94047 -26.94048 v 59.82378 c 0,45.4655 0.54639,60.57102 2.27653,62.93711 1.9196,2.62521 4.77663,3.03102 18.22214,2.58832 22.32718,-0.73514 22.61376,-1.18488 24.55482,-38.53619 0.81294,-15.6431 1.51524,-31.06869 1.5607,-34.2791 0.0762,-5.3753 0.54443,-5.83554 5.91974,-5.81732 3.2104,0.0108 8.98175,0.5392 12.82522,1.17406 l 6.98815,1.15431 -1.22987,28.90945 c -1.4686,34.52127 -3.57892,49.37549 -8.34077,58.7095 -5.67347,11.12092 -11.44282,13.13765 -39.42825,13.78256 -30.38513,0.70022 -40.34899,-1.4944 -46.18493,-10.17261 -4.09242,-6.08555 -4.10395,-6.29134 -4.10395,-73.18828 v -67.08559 h -18.58352 -18.58354 l -2.02915,22.05579 c -5.85185,63.60631 -28.37746,101.72485 -75.99279,128.59727 l -10.04905,5.67133 -7.77697,-10.30052 -7.77697,-10.30053 -1.4942,5.76628 c -2.68859,10.37562 -7.11648,11.71086 -37.72933,11.37738 -14.970436,-0.16308 -27.633363,-0.71091 -28.139833,-1.21737 -0.506471,-0.50648 -1.257113,-6.20168 -1.668093,-12.65602 l -0.747239,-11.73518 20.931364,0.57891 c 17.095741,0.47282 21.244541,0.0853 22.640391,-2.11513 0.96072,-1.51445 1.72107,-22.15746 1.73653,-47.14583 l 0.0275,-44.45178 H 91.920251 64.404405 l -2.222506,22.00139 c -1.222377,12.10076 -3.841852,30.04997 -5.821051,39.88713 -3.397959,16.88876 -14.274014,53.17239 -17.368505,57.94306 -1.008159,1.55425 -4.629303,-0.43552 -12.452824,-6.84268 z M 119.43609,389.73883 V 352.92019 H 92.495622 65.55515 v 36.81864 36.81865 h 26.940472 26.940468 z m 217.31982,-37.71666 v -42.20674 h -70.04523 -70.04523 v 42.20674 42.20674 h 70.04523 70.04523 z m -217.31982,-57.473 V 259.52655 H 92.495622 65.55515 v 35.02262 35.02261 h 26.940472 26.940468 z"
       id="path23937"
       transform="scale(0.26458333)" />
    <path
       style="fill:#f4eed7;fill-opacity:0;stroke-width:1.79603"
       d="m 26.539519,564.69082 -11.031301,-9.0342 4.282773,-11.37829 C 35.97263,501.28767 40.386099,452.71501 40.401472,317.44857 l 0.0092,-81.27043 H 92.495585 144.5805 v 156.4469 c 0,148.24819 0.16471,156.38519 3.14305,155.26954 19.15159,-7.17392 45.4195,-31.69977 54.93513,-51.29187 9.35141,-19.254 15.43653,-46.53518 15.52353,-69.59622 l 0.0356,-9.42917 H 193.9714 169.72498 v -65.55515 -65.55515 h 20.65436 c 12.76606,0 20.65436,-0.69573 20.65436,-1.82167 0,-1.00193 -5.31121,-12.42076 -11.80267,-25.37518 -6.49147,-12.95442 -11.13871,-24.15195 -10.32719,-24.88338 0.81153,-0.73144 6.56676,-3.01274 12.78942,-5.06956 l 11.31392,-3.73966 11.23048,22.81159 c 6.17677,12.54638 12.596,26.24651 14.26498,30.44473 l 3.03452,7.63313 h 22.98202 22.98203 l 7.93198,-12.06453 c 4.36258,-6.6355 12.23448,-20.53229 17.4931,-30.88176 5.25861,-10.34947 9.77874,-19.03483 10.04471,-19.30081 1.16875,-1.16875 24.56109,6.91809 24.56109,8.49088 0,2.41365 -13.44038,29.11209 -20.8509,41.41894 -3.34925,5.56222 -6.08957,10.61355 -6.08957,11.2252 0,0.61165 10.10268,1.11208 22.4504,1.11208 h 22.45039 v 65.55515 65.55515 h -26.94047 -26.94048 v 59.82378 c 0,45.4655 0.54639,60.57102 2.27653,62.93711 1.9196,2.62521 4.77663,3.03102 18.22214,2.58832 22.32718,-0.73514 22.61376,-1.18488 24.55482,-38.53619 0.81294,-15.6431 1.51524,-31.06869 1.5607,-34.2791 0.0762,-5.3753 0.54443,-5.83554 5.91974,-5.81732 3.2104,0.0108 8.98175,0.5392 12.82522,1.17406 l 6.98815,1.15431 -1.22987,28.90945 c -1.4686,34.52127 -3.57892,49.37549 -8.34077,58.7095 -5.67347,11.12092 -11.44282,13.13765 -39.42825,13.78256 -30.38513,0.70022 -40.34899,-1.4944 -46.18493,-10.17261 -4.09242,-6.08555 -4.10395,-6.29134 -4.10395,-73.18828 v -67.08559 h -18.58352 -18.58354 l -2.02915,22.05579 c -5.85185,63.60631 -28.37746,101.72485 -75.99279,128.59727 l -10.04905,5.67133 -7.77697,-10.30052 -7.77697,-10.30053 -1.4942,5.76628 c -2.68859,10.37562 -7.11648,11.71086 -37.72933,11.37738 -14.970436,-0.16308 -27.633363,-0.71091 -28.139833,-1.21737 -0.506471,-0.50648 -1.257113,-6.20168 -1.668093,-12.65602 l -0.747239,-11.73518 20.931364,0.57891 c 17.095741,0.47282 21.244541,0.0853 22.640391,-2.11513 0.96072,-1.51445 1.72107,-22.15746 1.73653,-47.14583 l 0.0275,-44.45178 H 91.920251 64.404405 l -2.222506,22.00139 c -1.222377,12.10076 -3.841852,30.04997 -5.821051,39.88713 -3.397959,16.88876 -14.274014,53.17239 -17.368505,57.94306 -1.008159,1.55425 -4.629303,-0.43552 -12.452824,-6.84268 z M 119.43609,389.73883 V 352.92019 H 92.495622 65.55515 v 36.81864 36.81865 h 26.940472 26.940468 z m 217.31982,-37.71666 v -42.20674 h -70.04523 -70.04523 v 42.20674 42.20674 h 70.04523 70.04523 z m -217.31982,-57.473 V 259.52655 H 92.495622 65.55515 v 35.02262 35.02261 h 26.940472 26.940468 z"
       id="path23976"
       transform="scale(0.26458333)" />
    <path
       style="fill:#f4eed7;fill-opacity:0;stroke-width:1.79603"
       d="m 26.539519,564.69082 -11.031301,-9.0342 4.282773,-11.37829 C 35.97263,501.28767 40.386099,452.71501 40.401472,317.44857 l 0.0092,-81.27043 H 92.495585 144.5805 v 156.4469 c 0,148.24819 0.16471,156.38519 3.14305,155.26954 19.15159,-7.17392 45.4195,-31.69977 54.93513,-51.29187 9.35141,-19.254 15.43653,-46.53518 15.52353,-69.59622 l 0.0356,-9.42917 H 193.9714 169.72498 v -65.55515 -65.55515 h 20.65436 c 12.76606,0 20.65436,-0.69573 20.65436,-1.82167 0,-1.00193 -5.31121,-12.42076 -11.80267,-25.37518 -6.49147,-12.95442 -11.13871,-24.15195 -10.32719,-24.88338 0.81153,-0.73144 6.56676,-3.01274 12.78942,-5.06956 l 11.31392,-3.73966 11.23048,22.81159 c 6.17677,12.54638 12.596,26.24651 14.26498,30.44473 l 3.03452,7.63313 h 22.98202 22.98203 l 7.93198,-12.06453 c 4.36258,-6.6355 12.23448,-20.53229 17.4931,-30.88176 5.25861,-10.34947 9.77874,-19.03483 10.04471,-19.30081 1.16875,-1.16875 24.56109,6.91809 24.56109,8.49088 0,2.41365 -13.44038,29.11209 -20.8509,41.41894 -3.34925,5.56222 -6.08957,10.61355 -6.08957,11.2252 0,0.61165 10.10268,1.11208 22.4504,1.11208 h 22.45039 v 65.55515 65.55515 h -26.94047 -26.94048 v 59.82378 c 0,45.4655 0.54639,60.57102 2.27653,62.93711 1.9196,2.62521 4.77663,3.03102 18.22214,2.58832 22.32718,-0.73514 22.61376,-1.18488 24.55482,-38.53619 0.81294,-15.6431 1.51524,-31.06869 1.5607,-34.2791 0.0762,-5.3753 0.54443,-5.83554 5.91974,-5.81732 3.2104,0.0108 8.98175,0.5392 12.82522,1.17406 l 6.98815,1.15431 -1.22987,28.90945 c -1.4686,34.52127 -3.57892,49.37549 -8.34077,58.7095 -5.67347,11.12092 -11.44282,13.13765 -39.42825,13.78256 -30.38513,0.70022 -40.34899,-1.4944 -46.18493,-10.17261 -4.09242,-6.08555 -4.10395,-6.29134 -4.10395,-73.18828 v -67.08559 h -18.58352 -18.58354 l -2.02915,22.05579 c -5.85185,63.60631 -28.37746,101.72485 -75.99279,128.59727 l -10.04905,5.67133 -7.77697,-10.30052 -7.77697,-10.30053 -1.4942,5.76628 c -2.68859,10.37562 -7.11648,11.71086 -37.72933,11.37738 -14.970436,-0.16308 -27.633363,-0.71091 -28.139833,-1.21737 -0.506471,-0.50648 -1.257113,-6.20168 -1.668093,-12.65602 l -0.747239,-11.73518 20.931364,0.57891 c 17.095741,0.47282 21.244541,0.0853 22.640391,-2.11513 0.96072,-1.51445 1.72107,-22.15746 1.73653,-47.14583 l 0.0275,-44.45178 H 91.920251 64.404405 l -2.222506,22.00139 c -1.222377,12.10076 -3.841852,30.04997 -5.821051,39.88713 -3.397959,16.88876 -14.274014,53.17239 -17.368505,57.94306 -1.008159,1.55425 -4.629303,-0.43552 -12.452824,-6.84268 z M 119.43609,389.73883 V 352.92019 H 92.495622 65.55515 v 36.81864 36.81865 h 26.940472 26.940468 z m 217.31982,-37.71666 v -42.20674 h -70.04523 -70.04523 v 42.20674 42.20674 h 70.04523 70.04523 z m -217.31982,-57.473 V 259.52655 H 92.495622 65.55515 v 35.02262 35.02261 h 26.940472 26.940468 z"
       id="path24015"
       transform="scale(0.26458333)" />
    <path
       style="fill:#f4eed7;fill-opacity:0;stroke-width:1.79603"
       d="m 26.539519,564.69082 -11.031301,-9.0342 4.282773,-11.37829 C 35.97263,501.28767 40.386099,452.71501 40.401472,317.44857 l 0.0092,-81.27043 H 92.495585 144.5805 v 156.4469 c 0,148.24819 0.16471,156.38519 3.14305,155.26954 19.15159,-7.17392 45.4195,-31.69977 54.93513,-51.29187 9.35141,-19.254 15.43653,-46.53518 15.52353,-69.59622 l 0.0356,-9.42917 H 193.9714 169.72498 v -65.55515 -65.55515 h 20.65436 c 12.76606,0 20.65436,-0.69573 20.65436,-1.82167 0,-1.00193 -5.31121,-12.42076 -11.80267,-25.37518 -6.49147,-12.95442 -11.13871,-24.15195 -10.32719,-24.88338 0.81153,-0.73144 6.56676,-3.01274 12.78942,-5.06956 l 11.31392,-3.73966 11.23048,22.81159 c 6.17677,12.54638 12.596,26.24651 14.26498,30.44473 l 3.03452,7.63313 h 22.98202 22.98203 l 7.93198,-12.06453 c 4.36258,-6.6355 12.23448,-20.53229 17.4931,-30.88176 5.25861,-10.34947 9.77874,-19.03483 10.04471,-19.30081 1.16875,-1.16875 24.56109,6.91809 24.56109,8.49088 0,2.41365 -13.44038,29.11209 -20.8509,41.41894 -3.34925,5.56222 -6.08957,10.61355 -6.08957,11.2252 0,0.61165 10.10268,1.11208 22.4504,1.11208 h 22.45039 v 65.55515 65.55515 h -26.94047 -26.94048 v 59.82378 c 0,45.4655 0.54639,60.57102 2.27653,62.93711 1.9196,2.62521 4.77663,3.03102 18.22214,2.58832 22.32718,-0.73514 22.61376,-1.18488 24.55482,-38.53619 0.81294,-15.6431 1.51524,-31.06869 1.5607,-34.2791 0.0762,-5.3753 0.54443,-5.83554 5.91974,-5.81732 3.2104,0.0108 8.98175,0.5392 12.82522,1.17406 l 6.98815,1.15431 -1.22987,28.90945 c -1.4686,34.52127 -3.57892,49.37549 -8.34077,58.7095 -5.67347,11.12092 -11.44282,13.13765 -39.42825,13.78256 -30.38513,0.70022 -40.34899,-1.4944 -46.18493,-10.17261 -4.09242,-6.08555 -4.10395,-6.29134 -4.10395,-73.18828 v -67.08559 h -18.58352 -18.58354 l -2.02915,22.05579 c -5.85185,63.60631 -28.37746,101.72485 -75.99279,128.59727 l -10.04905,5.67133 -7.77697,-10.30052 -7.77697,-10.30053 -1.4942,5.76628 c -2.68859,10.37562 -7.11648,11.71086 -37.72933,11.37738 -14.970436,-0.16308 -27.633363,-0.71091 -28.139833,-1.21737 -0.506471,-0.50648 -1.257113,-6.20168 -1.668093,-12.65602 l -0.747239,-11.73518 20.931364,0.57891 c 17.095741,0.47282 21.244541,0.0853 22.640391,-2.11513 0.96072,-1.51445 1.72107,-22.15746 1.73653,-47.14583 l 0.0275,-44.45178 H 91.920251 64.404405 l -2.222506,22.00139 c -1.222377,12.10076 -3.841852,30.04997 -5.821051,39.88713 -3.397959,16.88876 -14.274014,53.17239 -17.368505,57.94306 -1.008159,1.55425 -4.629303,-0.43552 -12.452824,-6.84268 z M 119.43609,389.73883 V 352.92019 H 92.495622 65.55515 v 36.81864 36.81865 h 26.940472 26.940468 z m 217.31982,-37.71666 v -42.20674 h -70.04523 -70.04523 v 42.20674 42.20674 h 70.04523 70.04523 z m -217.31982,-57.473 V 259.52655 H 92.495622 65.55515 v 35.02262 35.02261 h 26.940472 26.940468 z"
       id="path24054"
       transform="scale(0.26458333)" />
    <path
       style="fill:#f4eed7;fill-opacity:0;stroke-width:1.79603"
       d="m 26.539519,564.69082 -11.031301,-9.0342 4.282773,-11.37829 C 35.97263,501.28767 40.386099,452.71501 40.401472,317.44857 l 0.0092,-81.27043 H 92.495585 144.5805 v 156.4469 c 0,148.24819 0.16471,156.38519 3.14305,155.26954 19.15159,-7.17392 45.4195,-31.69977 54.93513,-51.29187 9.35141,-19.254 15.43653,-46.53518 15.52353,-69.59622 l 0.0356,-9.42917 H 193.9714 169.72498 v -65.55515 -65.55515 h 20.65436 c 12.76606,0 20.65436,-0.69573 20.65436,-1.82167 0,-1.00193 -5.31121,-12.42076 -11.80267,-25.37518 -6.49147,-12.95442 -11.13871,-24.15195 -10.32719,-24.88338 0.81153,-0.73144 6.56676,-3.01274 12.78942,-5.06956 l 11.31392,-3.73966 11.23048,22.81159 c 6.17677,12.54638 12.596,26.24651 14.26498,30.44473 l 3.03452,7.63313 h 22.98202 22.98203 l 7.93198,-12.06453 c 4.36258,-6.6355 12.23448,-20.53229 17.4931,-30.88176 5.25861,-10.34947 9.77874,-19.03483 10.04471,-19.30081 1.16875,-1.16875 24.56109,6.91809 24.56109,8.49088 0,2.41365 -13.44038,29.11209 -20.8509,41.41894 -3.34925,5.56222 -6.08957,10.61355 -6.08957,11.2252 0,0.61165 10.10268,1.11208 22.4504,1.11208 h 22.45039 v 65.55515 65.55515 h -26.94047 -26.94048 v 59.82378 c 0,45.4655 0.54639,60.57102 2.27653,62.93711 1.9196,2.62521 4.77663,3.03102 18.22214,2.58832 22.32718,-0.73514 22.61376,-1.18488 24.55482,-38.53619 0.81294,-15.6431 1.51524,-31.06869 1.5607,-34.2791 0.0762,-5.3753 0.54443,-5.83554 5.91974,-5.81732 3.2104,0.0108 8.98175,0.5392 12.82522,1.17406 l 6.98815,1.15431 -1.22987,28.90945 c -1.4686,34.52127 -3.57892,49.37549 -8.34077,58.7095 -5.67347,11.12092 -11.44282,13.13765 -39.42825,13.78256 -30.38513,0.70022 -40.34899,-1.4944 -46.18493,-10.17261 -4.09242,-6.08555 -4.10395,-6.29134 -4.10395,-73.18828 v -67.08559 h -18.58352 -18.58354 l -2.02915,22.05579 c -5.85185,63.60631 -28.37746,101.72485 -75.99279,128.59727 l -10.04905,5.67133 -7.77697,-10.30052 -7.77697,-10.30053 -1.4942,5.76628 c -2.68859,10.37562 -7.11648,11.71086 -37.72933,11.37738 -14.970436,-0.16308 -27.633363,-0.71091 -28.139833,-1.21737 -0.506471,-0.50648 -1.257113,-6.20168 -1.668093,-12.65602 l -0.747239,-11.73518 20.931364,0.57891 c 17.095741,0.47282 21.244541,0.0853 22.640391,-2.11513 0.96072,-1.51445 1.72107,-22.15746 1.73653,-47.14583 l 0.0275,-44.45178 H 91.920251 64.404405 l -2.222506,22.00139 c -1.222377,12.10076 -3.841852,30.04997 -5.821051,39.88713 -3.397959,16.88876 -14.274014,53.17239 -17.368505,57.94306 -1.008159,1.55425 -4.629303,-0.43552 -12.452824,-6.84268 z M 119.43609,389.73883 V 352.92019 H 92.495622 65.55515 v 36.81864 36.81865 h 26.940472 26.940468 z m 217.31982,-37.71666 v -42.20674 h -70.04523 -70.04523 v 42.20674 42.20674 h 70.04523 70.04523 z m -217.31982,-57.473 V 259.52655 H 92.495622 65.55515 v 35.02262 35.02261 h 26.940472 26.940468 z"
       id="path24093"
       transform="scale(0.26458333)" />
    <path
       style="fill:#f4eed7;fill-opacity:0;stroke-width:1.79603"
       d="m 26.539519,564.69082 -11.031301,-9.0342 4.282773,-11.37829 C 35.97263,501.28767 40.386099,452.71501 40.401472,317.44857 l 0.0092,-81.27043 H 92.495585 144.5805 v 156.4469 c 0,148.24819 0.16471,156.38519 3.14305,155.26954 19.15159,-7.17392 45.4195,-31.69977 54.93513,-51.29187 9.35141,-19.254 15.43653,-46.53518 15.52353,-69.59622 l 0.0356,-9.42917 H 193.9714 169.72498 v -65.55515 -65.55515 h 20.65436 c 12.76606,0 20.65436,-0.69573 20.65436,-1.82167 0,-1.00193 -5.31121,-12.42076 -11.80267,-25.37518 -6.49147,-12.95442 -11.13871,-24.15195 -10.32719,-24.88338 0.81153,-0.73144 6.56676,-3.01274 12.78942,-5.06956 l 11.31392,-3.73966 11.23048,22.81159 c 6.17677,12.54638 12.596,26.24651 14.26498,30.44473 l 3.03452,7.63313 h 22.98202 22.98203 l 7.93198,-12.06453 c 4.36258,-6.6355 12.23448,-20.53229 17.4931,-30.88176 5.25861,-10.34947 9.77874,-19.03483 10.04471,-19.30081 1.16875,-1.16875 24.56109,6.91809 24.56109,8.49088 0,2.41365 -13.44038,29.11209 -20.8509,41.41894 -3.34925,5.56222 -6.08957,10.61355 -6.08957,11.2252 0,0.61165 10.10268,1.11208 22.4504,1.11208 h 22.45039 v 65.55515 65.55515 h -26.94047 -26.94048 v 59.82378 c 0,45.4655 0.54639,60.57102 2.27653,62.93711 1.9196,2.62521 4.77663,3.03102 18.22214,2.58832 22.32718,-0.73514 22.61376,-1.18488 24.55482,-38.53619 0.81294,-15.6431 1.51524,-31.06869 1.5607,-34.2791 0.0762,-5.3753 0.54443,-5.83554 5.91974,-5.81732 3.2104,0.0108 8.98175,0.5392 12.82522,1.17406 l 6.98815,1.15431 -1.22987,28.90945 c -1.4686,34.52127 -3.57892,49.37549 -8.34077,58.7095 -5.67347,11.12092 -11.44282,13.13765 -39.42825,13.78256 -30.38513,0.70022 -40.34899,-1.4944 -46.18493,-10.17261 -4.09242,-6.08555 -4.10395,-6.29134 -4.10395,-73.18828 v -67.08559 h -18.58352 -18.58354 l -2.02915,22.05579 c -5.85185,63.60631 -28.37746,101.72485 -75.99279,128.59727 l -10.04905,5.67133 -7.77697,-10.30052 -7.77697,-10.30053 -1.4942,5.76628 c -2.68859,10.37562 -7.11648,11.71086 -37.72933,11.37738 -14.970436,-0.16308 -27.633363,-0.71091 -28.139833,-1.21737 -0.506471,-0.50648 -1.257113,-6.20168 -1.668093,-12.65602 l -0.747239,-11.73518 20.931364,0.57891 c 17.095741,0.47282 21.244541,0.0853 22.640391,-2.11513 0.96072,-1.51445 1.72107,-22.15746 1.73653,-47.14583 l 0.0275,-44.45178 H 91.920251 64.404405 l -2.222506,22.00139 c -1.222377,12.10076 -3.841852,30.04997 -5.821051,39.88713 -3.397959,16.88876 -14.274014,53.17239 -17.368505,57.94306 -1.008159,1.55425 -4.629303,-0.43552 -12.452824,-6.84268 z M 119.43609,389.73883 V 352.92019 H 92.495622 65.55515 v 36.81864 36.81865 h 26.940472 26.940468 z m 217.31982,-37.71666 v -42.20674 h -70.04523 -70.04523 v 42.20674 42.20674 h 70.04523 70.04523 z m -217.31982,-57.473 V 259.52655 H 92.495622 65.55515 v 35.02262 35.02261 h 26.940472 26.940468 z"
       id="path24132"
       transform="scale(0.26458333)" />
    <path
       style="fill:#f4eed7;fill-opacity:0;stroke-width:1.79603"
       d="m 26.539519,564.69082 -11.031301,-9.0342 4.282773,-11.37829 C 35.97263,501.28767 40.386099,452.71501 40.401472,317.44857 l 0.0092,-81.27043 H 92.495585 144.5805 v 156.4469 c 0,148.24819 0.16471,156.38519 3.14305,155.26954 19.15159,-7.17392 45.4195,-31.69977 54.93513,-51.29187 9.35141,-19.254 15.43653,-46.53518 15.52353,-69.59622 l 0.0356,-9.42917 H 193.9714 169.72498 v -65.55515 -65.55515 h 20.65436 c 12.76606,0 20.65436,-0.69573 20.65436,-1.82167 0,-1.00193 -5.31121,-12.42076 -11.80267,-25.37518 -6.49147,-12.95442 -11.13871,-24.15195 -10.32719,-24.88338 0.81153,-0.73144 6.56676,-3.01274 12.78942,-5.06956 l 11.31392,-3.73966 11.23048,22.81159 c 6.17677,12.54638 12.596,26.24651 14.26498,30.44473 l 3.03452,7.63313 h 22.98202 22.98203 l 7.93198,-12.06453 c 4.36258,-6.6355 12.23448,-20.53229 17.4931,-30.88176 5.25861,-10.34947 9.77874,-19.03483 10.04471,-19.30081 1.16875,-1.16875 24.56109,6.91809 24.56109,8.49088 0,2.41365 -13.44038,29.11209 -20.8509,41.41894 -3.34925,5.56222 -6.08957,10.61355 -6.08957,11.2252 0,0.61165 10.10268,1.11208 22.4504,1.11208 h 22.45039 v 65.55515 65.55515 h -26.94047 -26.94048 v 59.82378 c 0,45.4655 0.54639,60.57102 2.27653,62.93711 1.9196,2.62521 4.77663,3.03102 18.22214,2.58832 22.32718,-0.73514 22.61376,-1.18488 24.55482,-38.53619 0.81294,-15.6431 1.51524,-31.06869 1.5607,-34.2791 0.0762,-5.3753 0.54443,-5.83554 5.91974,-5.81732 3.2104,0.0108 8.98175,0.5392 12.82522,1.17406 l 6.98815,1.15431 -1.22987,28.90945 c -1.4686,34.52127 -3.57892,49.37549 -8.34077,58.7095 -5.67347,11.12092 -11.44282,13.13765 -39.42825,13.78256 -30.38513,0.70022 -40.34899,-1.4944 -46.18493,-10.17261 -4.09242,-6.08555 -4.10395,-6.29134 -4.10395,-73.18828 v -67.08559 h -18.58352 -18.58354 l -2.02915,22.05579 c -5.85185,63.60631 -28.37746,101.72485 -75.99279,128.59727 l -10.04905,5.67133 -7.77697,-10.30052 -7.77697,-10.30053 -1.4942,5.76628 c -2.68859,10.37562 -7.11648,11.71086 -37.72933,11.37738 -14.970436,-0.16308 -27.633363,-0.71091 -28.139833,-1.21737 -0.506471,-0.50648 -1.257113,-6.20168 -1.668093,-12.65602 l -0.747239,-11.73518 20.931364,0.57891 c 17.095741,0.47282 21.244541,0.0853 22.640391,-2.11513 0.96072,-1.51445 1.72107,-22.15746 1.73653,-47.14583 l 0.0275,-44.45178 H 91.920251 64.404405 l -2.222506,22.00139 c -1.222377,12.10076 -3.841852,30.04997 -5.821051,39.88713 -3.397959,16.88876 -14.274014,53.17239 -17.368505,57.94306 -1.008159,1.55425 -4.629303,-0.43552 -12.452824,-6.84268 z M 119.43609,389.73883 V 352.92019 H 92.495622 65.55515 v 36.81864 36.81865 h 26.940472 26.940468 z m 217.31982,-37.71666 v -42.20674 h -70.04523 -70.04523 v 42.20674 42.20674 h 70.04523 70.04523 z m -217.31982,-57.473 V 259.52655 H 92.495622 65.55515 v 35.02262 35.02261 h 26.940472 26.940468 z"
       id="path24171"
       transform="scale(0.26458333)" />
    <path
       style="fill:#f4eed7;fill-opacity:0;stroke-width:1.79603"
       d="m 26.539519,564.69082 -11.031301,-9.0342 4.282773,-11.37829 C 35.97263,501.28767 40.386099,452.71501 40.401472,317.44857 l 0.0092,-81.27043 H 92.495585 144.5805 v 156.4469 c 0,148.24819 0.16471,156.38519 3.14305,155.26954 19.15159,-7.17392 45.4195,-31.69977 54.93513,-51.29187 9.35141,-19.254 15.43653,-46.53518 15.52353,-69.59622 l 0.0356,-9.42917 H 193.9714 169.72498 v -65.55515 -65.55515 h 20.65436 c 12.76606,0 20.65436,-0.69573 20.65436,-1.82167 0,-1.00193 -5.31121,-12.42076 -11.80267,-25.37518 -6.49147,-12.95442 -11.13871,-24.15195 -10.32719,-24.88338 0.81153,-0.73144 6.56676,-3.01274 12.78942,-5.06956 l 11.31392,-3.73966 11.23048,22.81159 c 6.17677,12.54638 12.596,26.24651 14.26498,30.44473 l 3.03452,7.63313 h 22.98202 22.98203 l 7.93198,-12.06453 c 4.36258,-6.6355 12.23448,-20.53229 17.4931,-30.88176 5.25861,-10.34947 9.77874,-19.03483 10.04471,-19.30081 1.16875,-1.16875 24.56109,6.91809 24.56109,8.49088 0,2.41365 -13.44038,29.11209 -20.8509,41.41894 -3.34925,5.56222 -6.08957,10.61355 -6.08957,11.2252 0,0.61165 10.10268,1.11208 22.4504,1.11208 h 22.45039 v 65.55515 65.55515 h -26.94047 -26.94048 v 59.82378 c 0,45.4655 0.54639,60.57102 2.27653,62.93711 1.9196,2.62521 4.77663,3.03102 18.22214,2.58832 22.32718,-0.73514 22.61376,-1.18488 24.55482,-38.53619 0.81294,-15.6431 1.51524,-31.06869 1.5607,-34.2791 0.0762,-5.3753 0.54443,-5.83554 5.91974,-5.81732 3.2104,0.0108 8.98175,0.5392 12.82522,1.17406 l 6.98815,1.15431 -1.22987,28.90945 c -1.4686,34.52127 -3.57892,49.37549 -8.34077,58.7095 -5.67347,11.12092 -11.44282,13.13765 -39.42825,13.78256 -30.38513,0.70022 -40.34899,-1.4944 -46.18493,-10.17261 -4.09242,-6.08555 -4.10395,-6.29134 -4.10395,-73.18828 v -67.08559 h -18.58352 -18.58354 l -2.02915,22.05579 c -5.85185,63.60631 -28.37746,101.72485 -75.99279,128.59727 l -10.04905,5.67133 -7.77697,-10.30052 -7.77697,-10.30053 -1.4942,5.76628 c -2.68859,10.37562 -7.11648,11.71086 -37.72933,11.37738 -14.970436,-0.16308 -27.633363,-0.71091 -28.139833,-1.21737 -0.506471,-0.50648 -1.257113,-6.20168 -1.668093,-12.65602 l -0.747239,-11.73518 20.931364,0.57891 c 17.095741,0.47282 21.244541,0.0853 22.640391,-2.11513 0.96072,-1.51445 1.72107,-22.15746 1.73653,-47.14583 l 0.0275,-44.45178 H 91.920251 64.404405 l -2.222506,22.00139 c -1.222377,12.10076 -3.841852,30.04997 -5.821051,39.88713 -3.397959,16.88876 -14.274014,53.17239 -17.368505,57.94306 -1.008159,1.55425 -4.629303,-0.43552 -12.452824,-6.84268 z M 119.43609,389.73883 V 352.92019 H 92.495622 65.55515 v 36.81864 36.81865 h 26.940472 26.940468 z m 217.31982,-37.71666 v -42.20674 h -70.04523 -70.04523 v 42.20674 42.20674 h 70.04523 70.04523 z m -217.31982,-57.473 V 259.52655 H 92.495622 65.55515 v 35.02262 35.02261 h 26.940472 26.940468 z"
       id="path24210"
       transform="scale(0.26458333)" />
  </g>
</svg>
